<mxfile host="app.diagrams.net" modified="2023-05-13T19:43:33.166Z" agent="Mozilla/5.0 (Windows NT 10.0; Win64; x64) AppleWebKit/537.36 (KHTML, like Gecko) Chrome/113.0.0.0 Safari/537.36" etag="XCbIfw0WPR1NUOU3K0e8" version="21.3.0" type="github">
  <diagram name="Sayfa -1" id="E7HtZyPJfRZDzS7fbvhk">
    <mxGraphModel dx="2100" dy="1082" grid="1" gridSize="10" guides="1" tooltips="1" connect="1" arrows="1" fold="1" page="1" pageScale="1" pageWidth="1200" pageHeight="1600" background="none" math="0" shadow="0">
      <root>
        <mxCell id="0" />
        <mxCell id="1" parent="0" />
        <mxCell id="saOmMBJA0pu1n_iTMuZ0-1" value="SE 116 PROJECT MISTI GAME" style="text;html=1;strokeColor=#6F0000;fillColor=#a20025;align=center;verticalAlign=middle;whiteSpace=wrap;rounded=0;fontColor=#ffffff;" parent="1" vertex="1">
          <mxGeometry x="435" y="30" width="330" height="40" as="geometry" />
        </mxCell>
        <mxCell id="8szOMSAUV3aR8X-tSw4N-1" value="&lt;p style=&quot;margin:0px;margin-top:4px;text-align:center;&quot;&gt;&lt;b&gt;Class Cards&lt;/b&gt;&lt;/p&gt;&lt;p style=&quot;margin:0px;margin-top:4px;text-align:center;&quot;&gt;&lt;br&gt;&lt;/p&gt;&lt;p style=&quot;margin: 4px 0px 0px;&quot;&gt;&amp;nbsp;+ String suit;&lt;/p&gt;&lt;p style=&quot;margin: 4px 0px 0px;&quot;&gt;&amp;nbsp;+ String rank;&lt;/p&gt;&lt;p style=&quot;margin: 4px 0px 0px;&quot;&gt;&amp;nbsp;+ int points;&lt;/p&gt;&lt;p style=&quot;margin:0px;margin-left:4px;&quot;&gt;&lt;span style=&quot;text-align: center; background-color: initial; white-space: pre;&quot;&gt;&lt;br&gt;&lt;/span&gt;&lt;/p&gt;&lt;p style=&quot;text-align: center; margin: 0px 0px 0px 4px;&quot;&gt;&lt;b&gt;&lt;span style=&quot;background-color: initial; white-space: pre;&quot;&gt;M&lt;/span&gt;&lt;span style=&quot;text-align: center; background-color: initial;&quot;&gt;ethods&lt;/span&gt;&lt;/b&gt;&lt;/p&gt;&lt;p style=&quot;text-align: left; margin: 0px 0px 0px 4px;&quot;&gt;&lt;b&gt;&lt;span style=&quot;text-align: center; background-color: initial;&quot;&gt;&lt;br&gt;&lt;/span&gt;&lt;/b&gt;&lt;/p&gt;&lt;p style=&quot;margin: 0px 0px 0px 4px;&quot;&gt;+ getters/setters&lt;/p&gt;&lt;p style=&quot;margin: 0px 0px 0px 4px;&quot;&gt;+ toString - String&lt;/p&gt;&lt;p style=&quot;text-align: left; margin: 0px 0px 0px 4px;&quot;&gt;&lt;b&gt;&lt;span style=&quot;text-align: center; background-color: initial;&quot;&gt;&amp;nbsp;&lt;/span&gt;&lt;/b&gt;&lt;/p&gt;&lt;p style=&quot;text-align: left; margin: 0px 0px 0px 4px;&quot;&gt;&lt;b&gt;&lt;span style=&quot;text-align: center; background-color: initial;&quot;&gt;&lt;br&gt;&lt;/span&gt;&lt;/b&gt;&lt;/p&gt;&lt;p style=&quot;text-align: left; margin: 0px 0px 0px 4px;&quot;&gt;&lt;b&gt;&lt;span style=&quot;text-align: center; background-color: initial;&quot;&gt;&lt;br&gt;&lt;/span&gt;&lt;/b&gt;&lt;/p&gt;&lt;p style=&quot;text-align: center; margin: 0px 0px 0px 4px;&quot;&gt;&lt;b&gt;&lt;span style=&quot;text-align: center; background-color: initial;&quot;&gt;&lt;br&gt;&lt;/span&gt;&lt;/b&gt;&lt;/p&gt;&lt;p style=&quot;text-align: center; margin: 0px 0px 0px 4px;&quot;&gt;&lt;span style=&quot;text-align: center; background-color: initial;&quot;&gt;&lt;br&gt;&lt;/span&gt;&lt;/p&gt;&lt;p style=&quot;margin:0px;margin-left:4px;&quot;&gt;&amp;nbsp;&lt;/p&gt;&lt;p style=&quot;margin:0px;margin-left:4px;&quot;&gt;&lt;br&gt;&lt;/p&gt;&lt;p style=&quot;margin:0px;margin-left:4px;&quot;&gt;&lt;br&gt;&lt;/p&gt;&lt;p style=&quot;margin:0px;margin-left:4px;&quot;&gt;&lt;br&gt;&lt;/p&gt;" style="verticalAlign=top;align=left;overflow=fill;fontSize=12;fontFamily=Helvetica;html=1;whiteSpace=wrap;" parent="1" vertex="1">
          <mxGeometry x="865" y="220" width="160" height="190" as="geometry" />
        </mxCell>
        <mxCell id="8szOMSAUV3aR8X-tSw4N-19" value="&lt;p style=&quot;margin:0px;margin-top:4px;text-align:center;&quot;&gt;&lt;b&gt;Class Deck&lt;/b&gt;&lt;/p&gt;&lt;p style=&quot;margin:0px;margin-top:4px;text-align:center;&quot;&gt;&lt;br&gt;&lt;/p&gt;&amp;nbsp;+ ArrayList cards;&lt;br&gt;&lt;hr size=&quot;1&quot;&gt;&lt;p style=&quot;margin:0px;margin-left:4px;&quot;&gt;&lt;/p&gt;&lt;p style=&quot;text-align: center; margin: 0px 0px 0px 4px;&quot;&gt;&lt;b&gt;Methods&lt;/b&gt;&lt;/p&gt;&lt;p style=&quot;margin: 0px 0px 0px 4px;&quot;&gt;&lt;br&gt;&lt;/p&gt;&lt;p style=&quot;margin: 0px 0px 0px 4px;&quot;&gt;&amp;nbsp;+ createDeck() - void&lt;/p&gt;&lt;p style=&quot;margin: 0px 0px 0px 4px;&quot;&gt;&amp;nbsp;+ cutDeck(ArrayList&amp;lt;Cards&amp;gt;) - void&lt;/p&gt;&lt;p style=&quot;margin: 0px 0px 0px 4px;&quot;&gt;&amp;nbsp;+ shuffleDeck(ArrayList&amp;lt;Cards&amp;gt;) - void&lt;/p&gt;&lt;p style=&quot;margin: 0px 0px 0px 4px;&quot;&gt;&amp;nbsp;+ fileInput(Scanner) - String&lt;/p&gt;&lt;p style=&quot;margin: 0px 0px 0px 4px;&quot;&gt;&lt;br&gt;&lt;/p&gt;&lt;p style=&quot;margin: 0px 0px 0px 4px;&quot;&gt;&amp;nbsp;+ Getters/Setters&lt;/p&gt;" style="verticalAlign=top;align=left;overflow=fill;fontSize=12;fontFamily=Helvetica;html=1;whiteSpace=wrap;" parent="1" vertex="1">
          <mxGeometry x="865" y="430" width="220" height="190" as="geometry" />
        </mxCell>
        <mxCell id="8szOMSAUV3aR8X-tSw4N-26" style="edgeStyle=orthogonalEdgeStyle;rounded=0;orthogonalLoop=1;jettySize=auto;html=1;exitX=0.5;exitY=1;exitDx=0;exitDy=0;" parent="1" source="8szOMSAUV3aR8X-tSw4N-1" target="8szOMSAUV3aR8X-tSw4N-1" edge="1">
          <mxGeometry relative="1" as="geometry" />
        </mxCell>
        <mxCell id="8szOMSAUV3aR8X-tSw4N-35" value="&lt;p style=&quot;margin:0px;margin-top:4px;text-align:center;&quot;&gt;&lt;b&gt;Class Game&lt;/b&gt;&lt;/p&gt;&lt;p style=&quot;margin:0px;margin-top:4px;text-align:center;&quot;&gt;&lt;b&gt;&lt;br&gt;&lt;/b&gt;&lt;/p&gt;&lt;p style=&quot;margin: 4px 0px 0px;&quot;&gt;&amp;nbsp;+ Scanner scanner;&lt;/p&gt;&lt;p style=&quot;margin: 4px 0px 0px;&quot;&gt;&amp;nbsp;+ ArrayList deck;&lt;/p&gt;&lt;p style=&quot;margin: 4px 0px 0px;&quot;&gt;&amp;nbsp;+ ArrayList board;&lt;/p&gt;&lt;p style=&quot;margin: 4px 0px 0px;&quot;&gt;&amp;nbsp;+ HumanPlayer humanPlayer;&lt;/p&gt;&lt;p style=&quot;margin: 4px 0px 0px;&quot;&gt;&amp;nbsp;+ boolean spectatorMode;&lt;/p&gt;&lt;p style=&quot;margin: 4px 0px 0px;&quot;&gt;&amp;nbsp;+ boolean isValid;&lt;/p&gt;&lt;p style=&quot;margin: 4px 0px 0px;&quot;&gt;&amp;nbsp;+ boolean gameOver;&lt;/p&gt;&lt;p style=&quot;margin: 4px 0px 0px;&quot;&gt;&amp;nbsp;+ boolean verboseness;&lt;/p&gt;&lt;p style=&quot;margin: 4px 0px 0px;&quot;&gt;&amp;nbsp;+ Player lastWinner;&lt;/p&gt;&lt;p style=&quot;margin: 4px 0px 0px;&quot;&gt;&amp;nbsp;+ BotPlayers[] botPlayers;&lt;/p&gt;&lt;p style=&quot;margin: 4px 0px 0px;&quot;&gt;&amp;nbsp;+ int maximumBotPlayerNumber;&lt;/p&gt;&lt;p style=&quot;margin: 4px 0px 0px;&quot;&gt;&amp;nbsp;+ int minimumBotPlayerNumber;&lt;/p&gt;&lt;p style=&quot;margin: 4px 0px 0px;&quot;&gt;&amp;nbsp;+ int botPlayerNumber;&lt;/p&gt;&lt;p style=&quot;margin: 4px 0px 0px;&quot;&gt;&amp;nbsp;+ int playerNumber;&lt;/p&gt;&lt;p style=&quot;margin: 4px 0px 0px;&quot;&gt;&amp;nbsp;+ int round&lt;/p&gt;&lt;p style=&quot;margin: 4px 0px 0px;&quot;&gt;&amp;nbsp;+ int boardCardsSum&lt;/p&gt;&lt;p style=&quot;margin: 4px 0px 0px;&quot;&gt;&lt;br&gt;&lt;/p&gt;&lt;p style=&quot;margin: 4px 0px 0px;&quot;&gt;&amp;nbsp;Game()&amp;nbsp;&lt;/p&gt;&lt;p style=&quot;margin: 4px 0px 0px;&quot;&gt;&lt;span style=&quot;&quot;&gt; &lt;/span&gt;&lt;br&gt;&lt;/p&gt;&amp;nbsp;+ startGame();&lt;br&gt;&amp;nbsp;+ loopGame();&lt;br&gt;&amp;nbsp;+ endGame();&lt;br&gt;&lt;br&gt;&lt;br&gt;&lt;hr size=&quot;1&quot;&gt;&lt;p style=&quot;margin:0px;margin-left:4px;&quot;&gt;&lt;/p&gt;&lt;p style=&quot;text-align: center; margin: 0px 0px 0px 4px;&quot;&gt;&lt;b&gt;Methods&lt;/b&gt;&lt;/p&gt;&lt;p style=&quot;text-align: center; margin: 0px 0px 0px 4px;&quot;&gt;&lt;b&gt;&lt;br&gt;&lt;/b&gt;&lt;/p&gt;&lt;p style=&quot;margin: 0px 0px 0px 4px;&quot;&gt;&lt;b&gt;+ startGame() -&amp;nbsp; void&amp;nbsp;&lt;/b&gt;&lt;/p&gt;&lt;p style=&quot;margin: 0px 0px 0px 4px;&quot;&gt;&lt;b&gt;+ loopGame()&lt;/b&gt;&lt;b&gt;&amp;nbsp;- void&amp;nbsp;&lt;/b&gt;&lt;/p&gt;&lt;p style=&quot;margin: 0px 0px 0px 4px;&quot;&gt;&lt;b&gt;+ endGame() - void&amp;nbsp;&lt;/b&gt;&lt;/p&gt;&lt;p style=&quot;margin: 0px 0px 0px 4px;&quot;&gt;&lt;b&gt;+ addLastCardsToPlayer() - void&lt;/b&gt;&lt;/p&gt;&lt;p style=&quot;margin: 0px 0px 0px 4px;&quot;&gt;&lt;b&gt;+ deckOrganizer() - void&amp;nbsp;&lt;/b&gt;&lt;/p&gt;&lt;p style=&quot;margin: 0px 0px 0px 4px;&quot;&gt;&lt;b&gt;+ getBotHand() - void&lt;/b&gt;&lt;/p&gt;&lt;p style=&quot;margin: 0px 0px 0px 4px;&quot;&gt;&lt;b&gt;+ compare(Cards, Player) - void&lt;/b&gt;&lt;/p&gt;&lt;p style=&quot;margin: 0px 0px 0px 4px;&quot;&gt;&lt;b&gt;+ roundNumberCalculator() - int&lt;/b&gt;&lt;/p&gt;&lt;p style=&quot;margin: 0px 0px 0px 4px;&quot;&gt;&lt;b&gt;+ inputPlayers() - void&lt;/b&gt;&lt;/p&gt;&lt;p style=&quot;margin: 0px 0px 0px 4px;&quot;&gt;&lt;b&gt;+ verbosenessChecker() - void&amp;nbsp;&lt;/b&gt;&lt;/p&gt;&lt;p style=&quot;margin: 0px 0px 0px 4px;&quot;&gt;&lt;b&gt;+ inputBotLevel() - void&lt;/b&gt;&lt;/p&gt;&lt;p style=&quot;margin: 0px 0px 0px 4px;&quot;&gt;&lt;b&gt;+ implementBotNames() - void&lt;/b&gt;&lt;/p&gt;&lt;p style=&quot;margin: 0px 0px 0px 4px;&quot;&gt;&lt;b&gt;+ addBot(int) - void&lt;/b&gt;&lt;/p&gt;&lt;p style=&quot;margin: 0px 0px 0px 4px;&quot;&gt;&lt;b&gt;+ dealCardsToBoard() - void&lt;/b&gt;&lt;/p&gt;&lt;p style=&quot;margin: 0px 0px 0px 4px;&quot;&gt;&lt;b&gt;+ dealCardsToPlayers() - void&lt;/b&gt;&lt;/p&gt;&lt;p style=&quot;margin: 0px 0px 0px 4px;&quot;&gt;&lt;b&gt;+ checkBoardStatus() - void&lt;/b&gt;&lt;/p&gt;&lt;p style=&quot;margin: 0px 0px 0px 4px;&quot;&gt;&lt;b&gt;+ checkPlayerStatus() - void&lt;/b&gt;&lt;/p&gt;&lt;p style=&quot;margin: 0px 0px 0px 4px;&quot;&gt;&lt;b&gt;&lt;br&gt;&lt;/b&gt;&lt;/p&gt;&lt;p style=&quot;margin: 0px 0px 0px 4px;&quot;&gt;&lt;b&gt;+ Getters/Setters&lt;/b&gt;&lt;/p&gt;" style="verticalAlign=top;align=left;overflow=fill;fontSize=12;fontFamily=Helvetica;html=1;whiteSpace=wrap;" parent="1" vertex="1">
          <mxGeometry x="625" y="220" width="200" height="800" as="geometry" />
        </mxCell>
        <mxCell id="8szOMSAUV3aR8X-tSw4N-37" value="&lt;p style=&quot;margin:0px;margin-top:4px;text-align:center;&quot;&gt;&lt;b&gt;Class Main&lt;/b&gt;&lt;/p&gt;&lt;p style=&quot;text-align: center; margin: 0px 0px 0px 4px;&quot;&gt;&lt;br&gt;&lt;/p&gt;&lt;p style=&quot;margin: 0px 0px 0px 4px;&quot;&gt;&amp;nbsp;+ new Game();&lt;/p&gt;" style="verticalAlign=top;align=left;overflow=fill;fontSize=12;fontFamily=Helvetica;html=1;whiteSpace=wrap;" parent="1" vertex="1">
          <mxGeometry x="265" y="120" width="200" height="80" as="geometry" />
        </mxCell>
        <mxCell id="8szOMSAUV3aR8X-tSw4N-42" value="&lt;p style=&quot;margin:0px;margin-top:4px;text-align:center;&quot;&gt;&lt;b&gt;&amp;lt;Abstract&amp;gt; Player&lt;/b&gt;&lt;/p&gt;&lt;p style=&quot;margin:0px;margin-top:4px;text-align:center;&quot;&gt;&lt;br&gt;&lt;/p&gt;&lt;p style=&quot;margin: 4px 0px 0px;&quot;&gt;&amp;nbsp;+ String name;&lt;/p&gt;&lt;p style=&quot;margin: 4px 0px 0px;&quot;&gt;&amp;nbsp;+ &amp;lt;ArrayList&amp;gt; hand;&lt;/p&gt;&lt;p style=&quot;text-align: center; margin: 4px 0px 0px;&quot;&gt;&lt;br&gt;&lt;/p&gt;&lt;p style=&quot;text-align: center; margin: 4px 0px 0px;&quot;&gt;&lt;b&gt;Methods&lt;/b&gt;&amp;nbsp;&lt;/p&gt;&lt;p style=&quot;margin: 4px 0px 0px;&quot;&gt;&lt;br&gt;&lt;/p&gt;&lt;p style=&quot;margin: 4px 0px 0px;&quot;&gt;&amp;nbsp;+ getHand();&lt;/p&gt;&lt;p style=&quot;margin: 4px 0px 0px;&quot;&gt;&amp;nbsp;+ setHand();&lt;/p&gt;&lt;p style=&quot;margin: 4px 0px 0px;&quot;&gt;&amp;nbsp;+ getName();&lt;/p&gt;&lt;p style=&quot;margin: 4px 0px 0px;&quot;&gt;&amp;nbsp;+ setName();&lt;/p&gt;&lt;p style=&quot;margin: 4px 0px 0px;&quot;&gt;&lt;br&gt;&lt;/p&gt;&lt;p style=&quot;margin: 4px 0px 0px;&quot;&gt;&lt;br&gt;&lt;/p&gt;&lt;p style=&quot;margin: 4px 0px 0px;&quot;&gt;&amp;nbsp;&lt;/p&gt;&lt;br&gt;&lt;hr size=&quot;1&quot;&gt;&lt;p style=&quot;margin:0px;margin-left:4px;&quot;&gt;&lt;/p&gt;&lt;p style=&quot;text-align: center; margin: 0px 0px 0px 4px;&quot;&gt;&lt;br&gt;&lt;/p&gt;" style="verticalAlign=top;align=left;overflow=fill;fontSize=12;fontFamily=Helvetica;html=1;whiteSpace=wrap;" parent="1" vertex="1">
          <mxGeometry x="235" y="340" width="200" height="230" as="geometry" />
        </mxCell>
        <mxCell id="cOZcpUVt26zowt180uDO-19" style="edgeStyle=orthogonalEdgeStyle;rounded=0;orthogonalLoop=1;jettySize=auto;html=1;entryX=0.5;entryY=1;entryDx=0;entryDy=0;" edge="1" parent="1" source="8szOMSAUV3aR8X-tSw4N-47" target="8szOMSAUV3aR8X-tSw4N-76">
          <mxGeometry relative="1" as="geometry">
            <Array as="points">
              <mxPoint x="305" y="880" />
              <mxPoint x="488" y="880" />
            </Array>
          </mxGeometry>
        </mxCell>
        <mxCell id="cOZcpUVt26zowt180uDO-20" value="" style="edgeStyle=orthogonalEdgeStyle;rounded=0;orthogonalLoop=1;jettySize=auto;html=1;" edge="1" parent="1" source="8szOMSAUV3aR8X-tSw4N-47" target="8szOMSAUV3aR8X-tSw4N-80">
          <mxGeometry relative="1" as="geometry" />
        </mxCell>
        <mxCell id="8szOMSAUV3aR8X-tSw4N-47" value="&lt;p style=&quot;margin:0px;margin-top:4px;text-align:center;&quot;&gt;&lt;b&gt;fnal Class RegularBot&lt;/b&gt;&lt;/p&gt;&lt;p style=&quot;margin: 4px 0px 0px;&quot;&gt;&lt;br&gt;&lt;/p&gt;&lt;p style=&quot;margin: 4px 0px 0px;&quot;&gt;&lt;/p&gt;&amp;nbsp; + botPlayCard() - Cards&lt;p style=&quot;margin: 4px 0px 0px;&quot;&gt;&amp;nbsp;&lt;/p&gt;&lt;p style=&quot;margin: 4px 0px 0px;&quot;&gt;&amp;nbsp;&lt;/p&gt;&lt;br&gt;&lt;hr size=&quot;1&quot;&gt;&lt;p style=&quot;margin:0px;margin-left:4px;&quot;&gt;&lt;/p&gt;&lt;p style=&quot;text-align: center; margin: 0px 0px 0px 4px;&quot;&gt;&lt;br&gt;&lt;/p&gt;" style="verticalAlign=top;align=left;overflow=fill;fontSize=12;fontFamily=Helvetica;html=1;whiteSpace=wrap;" parent="1" vertex="1">
          <mxGeometry x="225" y="920" width="160" height="80" as="geometry" />
        </mxCell>
        <mxCell id="cOZcpUVt26zowt180uDO-22" style="edgeStyle=orthogonalEdgeStyle;rounded=0;orthogonalLoop=1;jettySize=auto;html=1;entryX=0.5;entryY=1;entryDx=0;entryDy=0;" edge="1" parent="1" source="8szOMSAUV3aR8X-tSw4N-56" target="8szOMSAUV3aR8X-tSw4N-42">
          <mxGeometry relative="1" as="geometry">
            <Array as="points">
              <mxPoint x="218" y="620" />
              <mxPoint x="335" y="620" />
            </Array>
          </mxGeometry>
        </mxCell>
        <mxCell id="8szOMSAUV3aR8X-tSw4N-56" value="&lt;p style=&quot;margin:0px;margin-top:4px;text-align:center;&quot;&gt;&lt;b&gt;&amp;nbsp;final Class HumanPlayer&lt;/b&gt;&lt;/p&gt;&lt;p style=&quot;margin:0px;margin-top:4px;text-align:center;&quot;&gt;&lt;b&gt;&lt;br&gt;&lt;/b&gt;&lt;/p&gt;&lt;p style=&quot;text-align: center; margin: 4px 0px 0px;&quot;&gt;&lt;b&gt;&amp;nbsp;Methods&lt;/b&gt;&lt;/p&gt;&lt;p style=&quot;margin: 4px 0px 0px;&quot;&gt;&lt;br&gt;&lt;/p&gt;&lt;p style=&quot;margin: 4px 0px 0px;&quot;&gt;&amp;nbsp;+ humanNameInput()- String&lt;/p&gt;&lt;p style=&quot;margin: 4px 0px 0px;&quot;&gt;&amp;nbsp;+ playCard() - void&lt;/p&gt;&lt;p style=&quot;margin: 4px 0px 0px;&quot;&gt;&amp;nbsp;&lt;/p&gt;&lt;br&gt;&lt;hr size=&quot;1&quot;&gt;&lt;p style=&quot;margin:0px;margin-left:4px;&quot;&gt;&lt;/p&gt;&lt;p style=&quot;text-align: center; margin: 0px 0px 0px 4px;&quot;&gt;&lt;br&gt;&lt;/p&gt;" style="verticalAlign=top;align=left;overflow=fill;fontSize=12;fontFamily=Helvetica;html=1;whiteSpace=wrap;" parent="1" vertex="1">
          <mxGeometry x="135" y="680" width="165" height="130" as="geometry" />
        </mxCell>
        <mxCell id="cOZcpUVt26zowt180uDO-23" style="edgeStyle=orthogonalEdgeStyle;rounded=0;orthogonalLoop=1;jettySize=auto;html=1;" edge="1" parent="1" source="8szOMSAUV3aR8X-tSw4N-76">
          <mxGeometry relative="1" as="geometry">
            <mxPoint x="335.0000000000002" y="570" as="targetPoint" />
            <Array as="points">
              <mxPoint x="488" y="620" />
              <mxPoint x="336" y="620" />
              <mxPoint x="336" y="570" />
            </Array>
          </mxGeometry>
        </mxCell>
        <mxCell id="8szOMSAUV3aR8X-tSw4N-76" value="&lt;p style=&quot;margin:0px;margin-top:4px;text-align:center;&quot;&gt;&lt;b&gt;&amp;lt;Abstract&amp;gt; BotPlayer&lt;/b&gt;&lt;/p&gt;&lt;p style=&quot;margin: 4px 0px 0px;&quot;&gt;&amp;nbsp;&lt;/p&gt;&lt;p style=&quot;margin: 4px 0px 0px;&quot;&gt;&amp;nbsp;+ int botDifficulty;&lt;/p&gt;&lt;p style=&quot;margin: 4px 0px 0px;&quot;&gt;&lt;br&gt;&lt;/p&gt;&lt;p style=&quot;text-align: center; margin: 4px 0px 0px;&quot;&gt;&lt;b&gt;Methods&lt;/b&gt;&lt;/p&gt;&lt;p style=&quot;margin: 4px 0px 0px;&quot;&gt;&lt;br&gt;&lt;/p&gt;&lt;p style=&quot;margin: 4px 0px 0px;&quot;&gt;&amp;nbsp;+ abstract botPlayCard() - Cards&lt;/p&gt;&lt;p style=&quot;margin: 4px 0px 0px;&quot;&gt;&amp;nbsp;+ Getters/Setters&lt;/p&gt;&lt;p style=&quot;margin: 4px 0px 0px;&quot;&gt;&lt;br&gt;&lt;/p&gt;&lt;p style=&quot;margin: 4px 0px 0px;&quot;&gt;&amp;nbsp;&amp;nbsp;&lt;/p&gt;&lt;br&gt;&lt;hr size=&quot;1&quot;&gt;&lt;p style=&quot;margin:0px;margin-left:4px;&quot;&gt;&lt;/p&gt;&lt;p style=&quot;text-align: center; margin: 0px 0px 0px 4px;&quot;&gt;&lt;br&gt;&lt;/p&gt;" style="verticalAlign=top;align=left;overflow=fill;fontSize=12;fontFamily=Helvetica;html=1;whiteSpace=wrap;" parent="1" vertex="1">
          <mxGeometry x="395" y="680" width="185" height="160" as="geometry" />
        </mxCell>
        <mxCell id="8szOMSAUV3aR8X-tSw4N-78" value="&lt;p style=&quot;margin:0px;margin-top:4px;text-align:center;&quot;&gt;&lt;b&gt;Class DifficultyConstants&lt;/b&gt;&lt;/p&gt;&lt;p style=&quot;margin:0px;margin-top:4px;text-align:center;&quot;&gt;&lt;br&gt;&lt;/p&gt;&lt;p style=&quot;margin: 4px 0px 0px;&quot;&gt;&amp;nbsp; + NOVICE_BOT_DIFFICULTY - int&lt;/p&gt;&lt;p style=&quot;margin: 4px 0px 0px;&quot;&gt;&amp;nbsp; + REGULAR_BOT_DIFFICULTY - int&lt;br&gt;&lt;/p&gt;&lt;p style=&quot;margin: 4px 0px 0px;&quot;&gt;&amp;nbsp; + EXPERT_BOT_DIFFICULTY - int&lt;br&gt;&lt;/p&gt;&lt;p style=&quot;margin: 4px 0px 0px;&quot;&gt;&lt;br&gt;&lt;/p&gt;&lt;p style=&quot;margin: 4px 0px 0px;&quot;&gt;&amp;nbsp; + NOVICE_BOT_NAME - String&lt;/p&gt;&lt;p style=&quot;margin: 4px 0px 0px;&quot;&gt;&amp;nbsp; + REGULAR_BOT_NAME - String&lt;/p&gt;&lt;p style=&quot;margin: 4px 0px 0px;&quot;&gt;&amp;nbsp; + EXPERT_BOT_NAME - String&lt;/p&gt;&lt;p style=&quot;margin: 4px 0px 0px;&quot;&gt;&lt;br&gt;&lt;/p&gt;" style="verticalAlign=top;align=left;overflow=fill;fontSize=12;fontFamily=Helvetica;html=1;whiteSpace=wrap;" parent="1" vertex="1">
          <mxGeometry x="865" y="860" width="220" height="180" as="geometry" />
        </mxCell>
        <mxCell id="cOZcpUVt26zowt180uDO-21" style="edgeStyle=orthogonalEdgeStyle;rounded=0;orthogonalLoop=1;jettySize=auto;html=1;entryX=0.5;entryY=1;entryDx=0;entryDy=0;" edge="1" parent="1" source="8szOMSAUV3aR8X-tSw4N-79" target="8szOMSAUV3aR8X-tSw4N-76">
          <mxGeometry relative="1" as="geometry">
            <Array as="points">
              <mxPoint x="105" y="880" />
              <mxPoint x="488" y="880" />
            </Array>
          </mxGeometry>
        </mxCell>
        <mxCell id="8szOMSAUV3aR8X-tSw4N-79" value="&lt;p style=&quot;margin:0px;margin-top:4px;text-align:center;&quot;&gt;&lt;b&gt;final Class NoviceBot&lt;/b&gt;&lt;/p&gt;&lt;p style=&quot;margin: 4px 0px 0px;&quot;&gt;&lt;br&gt;&lt;/p&gt;&lt;p style=&quot;margin: 4px 0px 0px;&quot;&gt;&amp;nbsp; &amp;nbsp;+ botPlayCard() - Cards&lt;/p&gt;&lt;p style=&quot;margin: 4px 0px 0px;&quot;&gt;&amp;nbsp;&lt;/p&gt;&lt;p style=&quot;margin: 4px 0px 0px;&quot;&gt;&amp;nbsp;&lt;/p&gt;&lt;br&gt;&lt;hr size=&quot;1&quot;&gt;&lt;p style=&quot;margin:0px;margin-left:4px;&quot;&gt;&lt;/p&gt;&lt;p style=&quot;text-align: center; margin: 0px 0px 0px 4px;&quot;&gt;&lt;br&gt;&lt;/p&gt;" style="verticalAlign=top;align=left;overflow=fill;fontSize=12;fontFamily=Helvetica;html=1;whiteSpace=wrap;" parent="1" vertex="1">
          <mxGeometry x="25" y="920" width="160" height="80" as="geometry" />
        </mxCell>
        <mxCell id="cOZcpUVt26zowt180uDO-18" style="edgeStyle=orthogonalEdgeStyle;rounded=0;orthogonalLoop=1;jettySize=auto;html=1;entryX=0.5;entryY=1;entryDx=0;entryDy=0;" edge="1" parent="1" source="8szOMSAUV3aR8X-tSw4N-80" target="8szOMSAUV3aR8X-tSw4N-76">
          <mxGeometry relative="1" as="geometry">
            <Array as="points">
              <mxPoint x="488" y="900" />
              <mxPoint x="488" y="900" />
            </Array>
          </mxGeometry>
        </mxCell>
        <mxCell id="8szOMSAUV3aR8X-tSw4N-80" value="&lt;p style=&quot;margin:0px;margin-top:4px;text-align:center;&quot;&gt;&lt;b&gt;final Class ExpertBot&lt;/b&gt;&lt;/p&gt;&lt;p style=&quot;margin: 4px 0px 0px;&quot;&gt;&lt;br&gt;&lt;/p&gt;&lt;p style=&quot;margin: 4px 0px 0px;&quot;&gt;&amp;nbsp; + botPlayCard() - Cards&lt;br&gt;&lt;/p&gt;&lt;p style=&quot;margin: 4px 0px 0px;&quot;&gt;&amp;nbsp;&lt;/p&gt;&lt;p style=&quot;margin: 4px 0px 0px;&quot;&gt;&amp;nbsp;&lt;/p&gt;&lt;br&gt;&lt;hr size=&quot;1&quot;&gt;&lt;p style=&quot;margin:0px;margin-left:4px;&quot;&gt;&lt;/p&gt;&lt;p style=&quot;text-align: center; margin: 0px 0px 0px 4px;&quot;&gt;&lt;br&gt;&lt;/p&gt;" style="verticalAlign=top;align=left;overflow=fill;fontSize=12;fontFamily=Helvetica;html=1;whiteSpace=wrap;" parent="1" vertex="1">
          <mxGeometry x="420" y="920" width="160" height="80" as="geometry" />
        </mxCell>
        <mxCell id="cOZcpUVt26zowt180uDO-1" value="«interface»&lt;br&gt;&lt;b&gt;Misti&lt;/b&gt;" style="html=1;whiteSpace=wrap;" vertex="1" parent="1">
          <mxGeometry x="670" y="120" width="110" height="60" as="geometry" />
        </mxCell>
        <mxCell id="cOZcpUVt26zowt180uDO-2" value="&lt;p style=&quot;margin:0px;margin-top:4px;text-align:center;&quot;&gt;&lt;b&gt;Class ScoreBoard&lt;/b&gt;&lt;/p&gt;&lt;p style=&quot;margin:0px;margin-top:4px;text-align:center;&quot;&gt;&lt;br&gt;&lt;/p&gt;&amp;nbsp; + ArrayList players;&lt;br&gt;&amp;nbsp; + Player highestScoredPlayer;&lt;br&gt;&amp;nbsp; + String filePath;&lt;br&gt;&amp;nbsp;&amp;nbsp;&lt;br&gt;&lt;div style=&quot;text-align: center;&quot;&gt;&lt;b&gt;Methods&lt;/b&gt;&lt;/div&gt;&lt;div style=&quot;&quot;&gt;&lt;b&gt;&lt;br&gt;&lt;/b&gt;&lt;/div&gt;&lt;div style=&quot;&quot;&gt;&lt;b&gt;&amp;nbsp; + scoreCalculator(HumanPlayer, BotPlayers[]) - void&lt;/b&gt;&lt;/div&gt;&lt;div style=&quot;&quot;&gt;&lt;b&gt;&amp;nbsp; + writeScores() - void&lt;/b&gt;&lt;/div&gt;" style="verticalAlign=top;align=left;overflow=fill;fontSize=12;fontFamily=Helvetica;html=1;whiteSpace=wrap;" vertex="1" parent="1">
          <mxGeometry x="865" y="640" width="310" height="190" as="geometry" />
        </mxCell>
        <mxCell id="cOZcpUVt26zowt180uDO-3" value="" style="endArrow=block;dashed=1;endFill=0;endSize=12;html=1;rounded=0;entryX=0.5;entryY=1;entryDx=0;entryDy=0;exitX=0.5;exitY=0;exitDx=0;exitDy=0;" edge="1" parent="1" source="8szOMSAUV3aR8X-tSw4N-35" target="cOZcpUVt26zowt180uDO-1">
          <mxGeometry width="160" relative="1" as="geometry">
            <mxPoint x="795" y="250" as="sourcePoint" />
            <mxPoint x="955" y="250" as="targetPoint" />
          </mxGeometry>
        </mxCell>
      </root>
    </mxGraphModel>
  </diagram>
</mxfile>
